<?xml version="1.0" encoding="UTF-8"?>
<svg version="1.1" xmlns="http://www.w3.org/2000/svg" width="1024" height="1024">
<path d="M0 0 C337.92 0 675.84 0 1024 0 C1024 337.92 1024 675.84 1024 1024 C686.08 1024 348.16 1024 0 1024 C0 686.08 0 348.16 0 0 Z " fill="#000000" transform="translate(0,0)"/>
<path d="M0 0 C1.80031679 0.00373724 3.60063564 0.00658085 5.4009552 0.00857544 C10.10431688 0.01615593 14.80755204 0.03575546 19.51086426 0.0579834 C24.32428273 0.07856314 29.13772195 0.08760292 33.95117188 0.09765625 C43.36984679 0.11900743 52.78842844 0.15307468 62.20703125 0.1953125 C60.30783228 4.25633062 57.63795064 7.40309616 54.70703125 10.7578125 C54.17311768 11.37479004 53.6392041 11.99176758 53.08911133 12.62744141 C48.9394411 17.40390721 44.70300024 22.0956134 40.4296875 26.76171875 C36.39101667 31.18367293 32.46806168 35.70054536 28.6015625 40.2734375 C22.64763936 47.29755949 16.53113744 54.10874821 10.20654297 60.80126953 C6.91136072 64.30792683 3.76962477 67.86577778 0.76953125 71.6328125 C-3.61643477 77.13371567 -8.425216 82.17755858 -13.26733398 87.27294922 C-17.71494536 91.97742378 -21.84334427 96.81165445 -25.87890625 101.875 C-28.13748902 104.61295544 -30.57747023 107.06924071 -33.125 109.53515625 C-35.49850731 111.89754643 -37.65762585 114.42601602 -39.84375 116.9609375 C-42.12317569 119.57382626 -44.45509228 122.13461271 -46.79296875 124.6953125 C-50.24995903 128.48600923 -53.66032023 132.30918382 -57.02734375 136.1796875 C-62.24211151 142.13282946 -67.58690841 147.97151641 -72.91796875 153.8203125 C-75.72054256 156.89840816 -78.5026475 159.9883312 -81.23046875 163.1328125 C-82.41629415 164.48844583 -83.60404322 165.84239724 -84.79296875 167.1953125 C-85.22818848 167.69305176 -85.6634082 168.19079102 -86.11181641 168.70361328 C-87.58009705 170.37550605 -89.06037997 172.03610375 -90.54296875 173.6953125 C-91.01532959 174.23663818 -91.48769043 174.77796387 -91.97436523 175.33569336 C-93.18564396 176.6803795 -94.4844075 177.94509475 -95.79296875 179.1953125 C-96.78296875 179.1953125 -97.77296875 179.1953125 -98.79296875 179.1953125 C-98.11926216 173.54233875 -96.25851191 168.49839927 -94.3203125 163.18359375 C-93.78855911 161.70737045 -93.78855911 161.70737045 -93.24606323 160.20132446 C-92.07953793 156.96819529 -90.90524534 153.73795178 -89.73046875 150.5078125 C-88.91148999 148.24494994 -88.09272633 145.98200952 -87.27416992 143.71899414 C-81.48352721 127.7359193 -75.59056753 111.79176682 -69.63793945 95.8684082 C-65.33972671 84.36953066 -61.08811668 72.85466991 -56.87799072 61.32324219 C-55.93178957 58.73314513 -54.98353732 56.14380813 -54.03466797 53.5546875 C-51.51410574 46.67298394 -48.99601329 39.79116794 -46.54522705 32.88424683 C-45.86435384 30.96813939 -45.17806754 29.05406788 -44.48974609 27.140625 C-43.6857964 24.90116219 -42.89208372 22.65798002 -42.11181641 20.41015625 C-39.47517572 13.11349017 -36.39888689 6.59925793 -29.79296875 2.1953125 C-20.22191526 -0.74355406 -9.88991639 -0.0607434 0 0 Z " fill="#FDFDFD" transform="translate(489.79296875,592.8046875)"/>
<path d="M0 0 C1.17923035 -0.01283524 2.35846069 -0.02567047 3.57342529 -0.03889465 C4.86178284 -0.04628159 6.15014038 -0.05366852 7.47753906 -0.0612793 C8.13338234 -0.06535482 8.78922562 -0.06943035 9.46494293 -0.07362938 C12.94879341 -0.09453775 16.43260417 -0.10880813 19.91650391 -0.11816406 C23.48363488 -0.12912623 27.05012417 -0.16339034 30.6170311 -0.20333576 C33.38322943 -0.22976544 36.14928259 -0.23787978 38.91559601 -0.24144554 C40.85900333 -0.24857376 42.80231043 -0.27491914 44.74554443 -0.30183411 C56.65408746 -0.27320827 68.33954404 2.09607178 77.49316406 10.17700195 C86.04682982 19.33209733 88.8767655 28.33306318 88.77832031 40.7512207 C88.15345332 48.25818445 85.23480126 55.32898275 80.49316406 61.17700195 C79.83316406 61.17700195 79.17316406 61.17700195 78.49316406 61.17700195 C78.49316406 61.83700195 78.49316406 62.49700195 78.49316406 63.17700195 C76.66503906 64.6496582 76.66503906 64.6496582 74.24316406 66.23950195 C73.45425781 66.76672852 72.66535156 67.29395508 71.85253906 67.8371582 C69.65784432 69.0834832 67.92635401 69.63027174 65.49316406 70.17700195 C65.90042725 70.9361792 66.30769043 71.69535645 66.72729492 72.47753906 C67.29843018 73.54238525 67.86956543 74.60723145 68.45800781 75.7043457 C68.76702026 76.28044083 69.07603271 76.85653595 69.39440918 77.4500885 C71.09665238 80.62430861 72.79735048 83.7993437 74.49536133 86.97583008 C75.18210521 88.26034796 75.86887271 89.54485321 76.55566406 90.8293457 C76.89544785 91.46488373 77.23523163 92.10042175 77.58531189 92.75521851 C79.53899742 96.40577205 81.50787042 100.04740723 83.49316406 103.6809082 C84.12363647 104.84408569 84.12363647 104.84408569 84.7668457 106.03076172 C85.52243922 107.42417952 86.28430019 108.81422365 87.0534668 110.20019531 C88.8658577 113.56213833 89.49316406 115.25003253 89.49316406 119.17700195 C86.12395229 120.86160784 82.38217786 120.48793169 78.68066406 120.55200195 C77.87306641 120.58938477 77.06546875 120.62676758 76.23339844 120.6652832 C75.44642578 120.67688477 74.65945313 120.68848633 73.84863281 120.70043945 C72.77585083 120.73016846 72.77585083 120.73016846 71.68139648 120.76049805 C67.3666129 119.60995328 65.05091661 116.05702195 62.75146484 112.42895508 C62.23567871 111.44862305 61.71989258 110.46829102 61.18847656 109.45825195 C60.60453125 108.3599707 60.02058594 107.26168945 59.41894531 106.13012695 C58.8246875 104.9905957 58.23042969 103.85106445 57.61816406 102.67700195 C57.03164063 101.5684082 56.44511719 100.45981445 55.84082031 99.31762695 C54.65713251 97.08032693 53.47775729 94.84073987 52.30273438 92.59887695 C51.04684797 90.22401136 49.77937519 87.86056636 48.48828125 85.50512695 C48.00087967 84.61319641 48.00087967 84.61319641 47.50363159 83.70324707 C46.59680525 82.04762811 45.68549218 80.39446896 44.77392578 78.74145508 C43.49316406 76.17700195 43.49316406 76.17700195 43.49316406 74.17700195 C34.25316406 74.17700195 25.01316406 74.17700195 15.49316406 74.17700195 C15.51636719 77.24625977 15.53957031 80.31551758 15.56347656 83.4777832 C15.57906865 86.44644762 15.59121593 89.41510749 15.60302734 92.38378906 C15.61309241 94.44891396 15.6267456 96.51402458 15.64404297 98.57910156 C15.66826899 101.54536459 15.67964203 104.51143939 15.68847656 107.4777832 C15.69879913 108.40287186 15.7091217 109.32796051 15.71975708 110.28108215 C15.71990814 111.14174789 15.7200592 112.00241364 15.72021484 112.88916016 C15.72465607 113.6463887 15.72909729 114.40361725 15.7336731 115.18379211 C15.49316406 117.17700195 15.49316406 117.17700195 13.49316406 120.17700195 C11.64550781 120.54931641 11.64550781 120.54931641 9.43066406 120.5402832 C8.63402344 120.53963867 7.83738281 120.53899414 7.01660156 120.53833008 C5.7675 120.51416016 5.7675 120.51416016 4.49316406 120.48950195 C3.2440625 120.49433594 3.2440625 120.49433594 1.96972656 120.49926758 C-4.23983339 120.4440045 -4.23983339 120.4440045 -6.50683594 118.17700195 C-6.75572491 116.10646725 -6.75572491 116.10646725 -6.7540741 113.50144958 C-6.75826859 112.51568939 -6.76246307 111.5299292 -6.76678467 110.51429749 C-6.76116516 109.42902267 -6.75554565 108.34374786 -6.74975586 107.22558594 C-6.75165421 106.08573242 -6.75355255 104.94587891 -6.75550842 103.77148438 C-6.75922532 99.98861908 -6.74849956 96.20594405 -6.73730469 92.4230957 C-6.73611338 89.8051811 -6.73565962 87.18726606 -6.73591614 84.5693512 C-6.7349791 79.07729709 -6.72628912 73.58529818 -6.71264648 68.09326172 C-6.69691272 61.73575306 -6.69164862 55.37830484 -6.69238204 49.02077812 C-6.69299152 42.91360822 -6.68778619 36.80646131 -6.67959023 30.69929695 C-6.67639685 28.09604067 -6.6744346 25.49278259 -6.67369652 22.88952446 C-6.67154048 19.2593261 -6.66281252 15.62920528 -6.65209961 11.99902344 C-6.6525528 10.9117244 -6.65300598 9.82442535 -6.6534729 8.70417786 C-6.64920792 7.72123749 -6.64494293 6.73829712 -6.64054871 5.72557068 C-6.63887286 4.86629188 -6.63719702 4.00701307 -6.63547039 3.12169552 C-6.36555 -0.95895659 -3.4507749 0.0325938 0 0 Z " fill="#FDFDFD" transform="translate(395.5068359375,457.822998046875)"/>
<path d="M0 0 C1.35448242 -0.04930664 1.35448242 -0.04930664 2.73632812 -0.09960938 C3.61353516 -0.10669922 4.49074219 -0.11378906 5.39453125 -0.12109375 C6.1935083 -0.13454834 6.99248535 -0.14800293 7.81567383 -0.16186523 C13.61399592 1.3033824 16.74088301 7.44567047 19.8046875 12.203125 C20.68317916 13.54367816 21.56176331 14.88417072 22.44042969 16.22460938 C22.89156128 16.9173999 23.34269287 17.61019043 23.80749512 18.32397461 C26.08240084 21.8080717 28.39017741 25.27023627 30.6953125 28.734375 C31.62898634 30.13926969 32.56257974 31.54421785 33.49609375 32.94921875 C33.95999512 33.64708496 34.42389648 34.34495117 34.90185547 35.06396484 C35.84668237 36.48627436 36.79068553 37.90913141 37.73388672 39.33251953 C44.28523732 49.23058837 44.28523732 49.23058837 51.1796875 58.890625 C56.55220312 66.15546156 61.33131452 73.82292975 66.1875 81.4375 C66.19780746 80.43747452 66.20811493 79.43744904 66.21873474 78.40711975 C66.31629804 69.00375227 66.41901546 59.6004535 66.52683926 50.19719791 C66.58211127 45.36236463 66.63553797 40.52752535 66.68481445 35.69262695 C66.73239507 31.03067516 66.78473533 26.36879933 66.84044075 21.70693779 C66.86089296 19.92427895 66.8796012 18.14159925 66.89657402 16.35890388 C66.92055486 13.87078399 66.9506176 11.38280902 66.98217773 8.89477539 C66.9879332 8.15031158 66.99368866 7.40584778 66.99961853 6.63882446 C67.07344784 1.55155216 67.07344784 1.55155216 68.1875 0.4375 C70.98927966 0.33722578 73.76099112 0.29876711 76.5625 0.3125 C77.34367187 0.30863281 78.12484375 0.30476563 78.9296875 0.30078125 C82.2640946 0.30649085 85.00356986 0.37618995 88.1875 1.4375 C89.39343342 3.84936685 89.31068918 5.34983077 89.30775452 8.04385376 C89.30981651 9.49941933 89.30981651 9.49941933 89.31192017 10.98439026 C89.30652725 12.58660683 89.30652725 12.58660683 89.30102539 14.22119141 C89.30117142 15.34314407 89.30131744 16.46509674 89.3014679 17.62104797 C89.30076909 21.34373889 89.29297815 25.06638028 89.28515625 28.7890625 C89.28329196 31.36453219 89.28186811 33.94000224 89.28086853 36.51547241 C89.2774355 42.61050322 89.26954739 48.70551347 89.25951904 54.80053651 C89.24835056 61.73877972 89.2428456 68.67702376 89.23782361 75.61527371 C89.22736458 89.88935876 89.20976971 104.16342874 89.1875 118.4375 C83.06595112 121.81484767 74.9960276 121.72153373 68.1875 120.4375 C64.6974723 118.44156913 63.16761635 115.8746831 61.1875 112.4375 C59.94104141 110.60175707 58.69075811 108.76860765 57.4375 106.9375 C56.39933097 105.34537513 55.36119001 103.75323181 54.32373047 102.16064453 C52.26197238 99.0338958 50.12811399 95.95679478 48 92.875 C44.51903116 87.82689935 41.04799373 82.77237287 37.59179688 77.70727539 C31.24384067 68.40635122 24.83215848 59.15102436 18.3918457 49.91381836 C17.74304443 48.9831958 17.09424316 48.05257324 16.42578125 47.09375 C15.84868408 46.26681641 15.27158691 45.43988281 14.67700195 44.58789062 C13.49620242 42.883173 12.33779758 41.16294637 11.1875 39.4375 C10.8575 65.5075 10.5275 91.5775 10.1875 118.4375 C5.93896392 120.56176804 3.84933212 120.70725353 -0.8125 120.6875 C-2.029375 120.69265625 -3.24625 120.6978125 -4.5 120.703125 C-7.64915985 120.45059803 -9.12121197 119.91360406 -11.8125 118.4375 C-11.85917809 103.34753662 -11.89446824 88.25757883 -11.91612434 73.16755867 C-11.92644599 66.16132319 -11.94052321 59.15513251 -11.96337891 52.14892578 C-11.98540853 45.39273331 -11.99705535 38.63659711 -12.00225449 31.88036728 C-12.00596155 29.29746643 -12.01320005 26.71456826 -12.02396011 24.13168716 C-12.03839163 20.52539725 -12.04048144 16.91930223 -12.03955078 13.31298828 C-12.04674133 12.23549316 -12.05393188 11.15799805 -12.06134033 10.04785156 C-12.058591 9.06906036 -12.05584167 8.09026917 -12.05300903 7.08181763 C-12.05577441 5.80144717 -12.05577441 5.80144717 -12.05859566 4.49521065 C-11.34347985 -1.48417733 -4.54844429 0.02884848 0 0 Z " fill="#FEFDFE" transform="translate(159.8125,457.5625)"/>
<path d="M0 0 C1.04994141 -0.03287109 2.09988281 -0.06574219 3.18164062 -0.09960938 C4.19291016 -0.10669922 5.20417969 -0.11378906 6.24609375 -0.12109375 C7.16962646 -0.13454834 8.09315918 -0.14800293 9.04467773 -0.16186523 C12.67426591 0.70215484 13.585209 2.32670174 15.5625 5.4375 C16.61196068 7.77051823 17.53166323 10.02658314 18.390625 12.42578125 C18.65287369 13.13314423 18.91512238 13.8405072 19.18531799 14.56930542 C20.06956863 16.95982005 20.94073336 19.35490745 21.8125 21.75 C22.44382448 23.46239442 23.07626675 25.17437706 23.7097168 26.88598633 C24.76579272 29.74030111 25.82094425 32.59493517 26.87284851 35.45079041 C31.50072206 48.0118118 36.21162681 60.54172378 40.91634178 73.07411098 C42.55107058 77.42871126 44.18436893 81.78384367 45.81610966 86.13956451 C46.84734683 88.89230375 47.87901829 91.64488011 48.91074944 94.39743423 C49.39503413 95.68970686 49.87915445 96.98204111 50.36310005 98.27444077 C51.03166905 100.05970084 51.70099842 101.84467611 52.37036133 103.62963867 C52.74703445 104.63484055 53.12370758 105.64004242 53.51179504 106.67570496 C54.20766944 108.5048221 54.93281035 110.32309244 55.68778992 112.12861633 C56.67287641 114.72884943 56.79238782 116.67884611 56.5625 119.4375 C54.40176863 121.59823137 49.73285989 120.71534245 46.75 120.75 C45.51926758 120.79350586 45.51926758 120.79350586 44.26367188 120.83789062 C43.46896484 120.84626953 42.67425781 120.85464844 41.85546875 120.86328125 C41.1286792 120.87786377 40.40188965 120.89244629 39.65307617 120.9074707 C36.64050508 120.23023149 35.49586836 118.80101182 33.5625 116.4375 C32.37402344 114.08740234 32.37402344 114.08740234 31.421875 111.5234375 C31.07382812 110.59789062 30.72578125 109.67234375 30.3671875 108.71875 C30.01914062 107.7596875 29.67109375 106.800625 29.3125 105.8125 C28.94898438 104.84570312 28.58546875 103.87890625 28.2109375 102.8828125 C25.5625 95.75393562 25.5625 95.75393562 25.5625 93.4375 C8.7325 93.4375 -8.0975 93.4375 -25.4375 93.4375 C-26.4275 96.7375 -27.4175 100.0375 -28.4375 103.4375 C-29.4019714 106.12998266 -30.38240146 108.78326774 -31.4375 111.4375 C-31.685 112.09105469 -31.9325 112.74460937 -32.1875 113.41796875 C-33.56782045 116.90471572 -34.23126986 118.30001324 -37.4375 120.4375 C-40.32962821 120.60661354 -43.11194625 120.67053778 -46 120.625 C-46.78052734 120.62435547 -47.56105469 120.62371094 -48.36523438 120.62304688 C-54.15634586 120.57807707 -54.15634586 120.57807707 -56.4375 119.4375 C-55.90150452 113.6204444 -54.70064829 108.74029894 -52.5859375 103.3125 C-52.149897 102.16102226 -52.149897 102.16102226 -51.70504761 100.98628235 C-50.74897188 98.46685107 -49.78071779 95.9522871 -48.8125 93.4375 C-48.13546492 91.65945151 -47.45937443 89.88104308 -46.78417969 88.10229492 C-45.37827667 84.40063366 -43.96830628 80.70055917 -42.55566406 77.00146484 C-39.54369473 69.10343871 -36.58818309 61.18436486 -33.62908936 53.26641846 C-32.08044461 49.12763099 -30.52396443 44.99179089 -28.96875 40.85546875 C-26.94654602 35.47659341 -24.93682529 30.09348619 -22.94976807 24.70152283 C-21.937068 21.95671307 -20.91713746 19.21462533 -19.89587402 16.47299194 C-19.20654261 14.6138581 -18.52743866 12.75094215 -17.84863281 10.88793945 C-17.43967773 9.79312256 -17.03072266 8.69830566 -16.609375 7.5703125 C-16.2597168 6.62043457 -15.91005859 5.67055664 -15.54980469 4.69189453 C-12.55211655 -1.38375347 -5.80951333 0.03197897 0 0 Z " fill="#FDFDFD" transform="translate(660.4375,457.5625)"/>
<path d="M0 0 C0.99 0.33 1.98 0.66 3 1 C1.65353982 7.88658282 -0.41242203 14.11313316 -3 20.625 C-3.90322076 22.93585532 -4.80548256 25.24708558 -5.70703125 27.55859375 C-5.95741653 28.19829605 -6.20780182 28.83799835 -6.46577454 29.49708557 C-9.86746607 38.19528162 -13.19075368 46.9236326 -16.52536011 55.64770508 C-18.47858648 60.7567351 -20.43441422 65.86476832 -22.390625 70.97265625 C-22.77882919 71.98631256 -23.16703339 72.99996887 -23.56700134 74.04434204 C-26.07572775 80.59284157 -28.59001912 87.13917668 -31.109375 93.68359375 C-31.43248154 94.52313599 -31.75558807 95.36267822 -32.08848572 96.22766113 C-33.65183237 100.2888931 -35.21705426 104.34938742 -36.78540039 108.40869141 C-39.64011712 115.80544255 -42.46143338 123.21144557 -45.19921875 130.65234375 C-45.70104868 132.0077255 -46.2030779 133.36303349 -46.70532227 134.71826172 C-47.6216197 137.19081527 -48.52200097 139.66724413 -49.41381836 142.14892578 C-53.92138411 154.3237769 -53.92138411 154.3237769 -59.68847656 158.10791016 C-62.89631146 159.34591488 -66.0321976 159.47525124 -69.4296875 159.62109375 C-70.58741165 159.67770424 -70.58741165 159.67770424 -71.76852417 159.73545837 C-84.21052957 160.2645278 -96.67508789 160.10443755 -109.125 160.0625 C-111.74088456 160.05747257 -114.35677005 160.05291187 -116.97265625 160.04882812 C-123.31512505 160.03792653 -129.65755799 160.0212879 -136 160 C-134.09685766 155.91994925 -131.39170867 152.79382834 -128.4375 149.4375 C-127.34013436 148.17535788 -126.24378823 146.91232866 -125.1484375 145.6484375 C-124.60928711 145.02678711 -124.07013672 144.40513672 -123.51464844 143.76464844 C-121.48511729 141.40013342 -119.52054107 138.98639471 -117.5625 136.5625 C-113.46020051 131.51066283 -109.21298022 126.5969402 -104.93994141 121.68994141 C-101.40779275 117.63161873 -97.90540981 113.55083686 -94.4375 109.4375 C-90.14393959 104.34484729 -85.81813912 99.28104808 -81.47802734 94.22802734 C-78.15419447 90.3550488 -74.85243281 86.464291 -71.5625 82.5625 C-65.98970555 75.95927191 -60.33023537 69.4326085 -54.66162109 62.91162109 C-51.91815975 59.75539096 -49.17737475 56.59684376 -46.4375 53.4375 C-45.9017334 52.8199585 -45.3659668 52.20241699 -44.81396484 51.56616211 C-40.60091921 46.70529861 -36.42136692 41.81636992 -32.24462891 36.92431641 C-29.31737077 33.50609717 -26.34190319 30.14116832 -23.3125 26.8125 C-20.28287132 23.47772886 -17.39391908 20.06712361 -14.5625 16.5625 C-9.92708695 10.829657 -5.00900108 5.40637486 0 0 Z " fill="#FDFDFD" transform="translate(599,285)"/>
<path d="M0 0 C1.10658966 0.00607269 1.10658966 0.00607269 2.23553467 0.01226807 C3.01289978 0.00876343 3.79026489 0.00525879 4.59118652 0.00164795 C7.16803849 -0.00717493 9.74461727 -0.00131833 12.32147217 0.00543213 C14.10744276 0.00408564 15.89341299 0.00214524 17.67938232 -0.00036621 C21.42534876 -0.00331823 25.17121992 0.00098264 28.91717529 0.01031494 C33.7261005 0.02170953 38.53480248 0.01515047 43.34371948 0.00317001 C47.03250825 -0.00404651 50.72124383 -0.00176162 54.41003418 0.0034256 C56.18351264 0.00476267 57.95699587 0.00311237 59.73046875 -0.00153351 C62.20624642 -0.00659536 64.68165927 0.0011065 67.15740967 0.01226807 C67.89513611 0.0082196 68.63286255 0.00417114 69.39294434 0 C74.46794339 0.04252835 74.46794339 0.04252835 76.69647217 2.27105713 C76.89499319 4.98028514 76.97486694 7.56408892 76.94647217 10.27105713 C76.95807373 11.37707275 76.95807373 11.37707275 76.96990967 12.50543213 C76.94979177 18.01773753 76.94979177 18.01773753 74.69647217 20.27105713 C72.21609497 20.51156616 72.21609497 20.51156616 69.05340576 20.49810791 C67.87233246 20.49795685 66.69125916 20.49780579 65.47439575 20.49765015 C64.19416534 20.48732758 62.91393494 20.477005 61.59490967 20.46636963 C59.63480453 20.46212479 59.63480453 20.46212479 57.63510132 20.45779419 C54.15965136 20.45015489 50.68436834 20.43050403 47.20898438 20.40838623 C43.66317036 20.38793409 40.1173286 20.37868433 36.57147217 20.36871338 C29.61299135 20.34831924 22.65496908 20.30917428 15.69647217 20.27105713 C15.69647217 29.84105713 15.69647217 39.41105713 15.69647217 49.27105713 C19.34322998 49.247854 22.98998779 49.22465088 26.74725342 49.20074463 C30.27190808 49.1851555 33.79655893 49.17300653 37.32122803 49.16119385 C39.77437046 49.15112468 42.22750086 49.13746852 44.68060303 49.12017822 C48.20285 49.09597034 51.72493855 49.08458325 55.24725342 49.07574463 C56.89737175 49.06026077 56.89737175 49.06026077 58.58082581 49.04446411 C59.60165756 49.04431305 60.62248932 49.04416199 61.67425537 49.04400635 C62.57360306 49.03956512 63.47295074 49.0351239 64.39955139 49.0305481 C66.69647217 49.27105713 66.69647217 49.27105713 69.69647217 51.27105713 C70.03704834 53.15045166 70.03704834 53.15045166 69.98944092 55.40386963 C69.97977295 56.20953369 69.97010498 57.01519775 69.96014404 57.84527588 C69.93500732 58.68703369 69.90987061 59.5287915 69.88397217 60.39605713 C69.86366943 61.67029541 69.86366943 61.67029541 69.84295654 62.97027588 C69.80755436 65.0708055 69.75374618 67.17101006 69.69647217 69.27105713 C67.19097772 70.52380435 65.49911585 70.39135337 62.69598389 70.38458252 C61.13459183 70.38446922 61.13459183 70.38446922 59.54165649 70.38435364 C58.41454254 70.37919235 57.28742859 70.37403107 56.12615967 70.36871338 C54.97479523 70.36729843 53.82343079 70.36588348 52.63717651 70.36442566 C48.94858231 70.35881429 45.26004812 70.34625983 41.57147217 70.33355713 C39.07537929 70.3285436 36.57928547 70.32398043 34.08319092 70.31988525 C27.95424277 70.30969073 21.8254249 70.29011745 15.69647217 70.27105713 C15.69647217 79.51105713 15.69647217 88.75105713 15.69647217 98.27105713 C20.00451904 98.247854 24.31256592 98.22465088 28.75115967 98.20074463 C32.18095279 98.18788746 35.61073913 98.17704018 39.0405426 98.16755676 C42.66401994 98.15698471 46.28740409 98.14285143 49.91082764 98.12017822 C53.39916027 98.09848633 56.88740241 98.08649628 60.37579727 98.08130264 C62.35787188 98.07579544 64.33990995 98.06017679 66.32192993 98.04446411 C67.52302399 98.04431305 68.72411804 98.04416199 69.96160889 98.04400635 C71.02306122 98.03956512 72.08451355 98.0351239 73.1781311 98.0305481 C75.69647217 98.27105713 75.69647217 98.27105713 77.69647217 100.27105713 C77.93939209 102.13458252 77.93939209 102.13458252 77.92694092 104.36871338 C77.92500732 105.16986572 77.92307373 105.97101807 77.92108154 106.79644775 C77.90883545 107.63369385 77.89658936 108.47093994 77.88397217 109.33355713 C77.88300537 110.59522705 77.88300537 110.59522705 77.88201904 111.88238525 C77.83670401 118.13082529 77.83670401 118.13082529 76.69647217 119.27105713 C74.15134213 119.37675092 71.63320891 119.41783885 69.08734131 119.4163208 C67.89225197 119.42135872 67.89225197 119.42135872 66.67301941 119.42649841 C64.02587344 119.4360371 61.37879053 119.43795298 58.73162842 119.43902588 C56.89938836 119.44223642 55.06714856 119.44560033 53.23490906 119.44911194 C49.38883876 119.45511051 45.54279096 119.45695109 41.69671631 119.45635986 C36.75886492 119.4562582 31.82115719 119.4699118 26.88333988 119.48713207 C23.09762403 119.49822917 19.31194315 119.50027978 15.52621269 119.49975014 C13.70528099 119.50093367 11.88434848 119.50537617 10.06343269 119.5130825 C7.5205175 119.52283641 4.9779174 119.52002273 2.43499756 119.51397705 C1.29799911 119.52240631 1.29799911 119.52240631 0.13803101 119.53100586 C-5.07521226 119.4993727 -5.07521226 119.4993727 -7.30352783 117.27105713 C-7.55521011 115.23455048 -7.55521011 115.23455048 -7.55749512 112.67816162 C-7.56313477 111.7106749 -7.56877441 110.74318817 -7.57458496 109.74638367 C-7.5705365 108.68138138 -7.56648804 107.61637909 -7.56231689 106.519104 C-7.56582153 105.40036392 -7.56932617 104.28162384 -7.57293701 103.12898254 C-7.58176896 99.41586171 -7.57589993 95.70293004 -7.56915283 91.98980713 C-7.57049906 89.41912804 -7.57243923 86.84844921 -7.57495117 84.277771 C-7.57790443 78.88406727 -7.57378792 73.49043518 -7.56427002 68.09674072 C-7.55338515 61.85623714 -7.55691063 55.61586424 -7.56792283 49.37536383 C-7.57808309 43.37817925 -7.57701952 37.38105874 -7.57115936 31.38386536 C-7.56982136 28.82888267 -7.57147583 26.27389667 -7.57611847 23.71891785 C-7.5811747 20.15352432 -7.57348602 16.58838478 -7.56231689 13.02301025 C-7.56636536 11.95800797 -7.57041382 10.89300568 -7.57458496 9.79573059 C-7.56894531 8.82824387 -7.56330566 7.86075714 -7.55749512 6.86395264 C-7.55674107 6.02034431 -7.55598701 5.17673599 -7.55521011 4.30756378 C-6.98675037 -0.29217219 -3.91011057 0.03276662 0 0 Z " fill="#FDFDFD" transform="translate(284.30352783203125,457.72894287109375)"/>
<path d="M0 0 C1.53149722 0.00796272 3.06300195 0.03738289 4.59375 0.0859375 C5.75197266 0.08787109 5.75197266 0.08787109 6.93359375 0.08984375 C10.80602902 0.15024569 12.81008068 0.27182462 16.09375 2.4609375 C16.45451355 4.48574829 16.45451355 4.48574829 16.43432617 7.00244141 C16.43409958 7.94326569 16.43387299 8.88408997 16.43363953 9.85342407 C16.41815567 10.87116913 16.40267181 11.88891418 16.38671875 12.9375 C16.38247391 13.97788422 16.37822906 15.01826843 16.37385559 16.09017944 C16.35702482 19.42235897 16.31936422 22.75393991 16.28125 26.0859375 C16.26620887 28.34113712 16.25251947 30.59634619 16.24023438 32.8515625 C16.20710699 38.38822605 16.1568642 43.92453902 16.09375 49.4609375 C22.19536387 47.95590857 24.8851587 46.08010444 28.46875 41.0234375 C29.42341397 39.74269489 30.37915587 38.46275512 31.3359375 37.18359375 C31.80225586 36.54953613 32.26857422 35.91547852 32.74902344 35.26220703 C34.61678925 32.7603232 36.59772173 30.36117938 38.59375 27.9609375 C42.05515932 23.76001704 45.43058151 19.50004191 48.78125 15.2109375 C59.18993259 1.9128462 59.18993259 1.9128462 62.09375 0.4609375 C63.5183528 0.36589225 64.94723167 0.3302089 66.375 0.328125 C67.21675781 0.32683594 68.05851563 0.32554687 68.92578125 0.32421875 C69.80621094 0.32808594 70.68664062 0.33195312 71.59375 0.3359375 C72.47417969 0.33207031 73.35460937 0.32820313 74.26171875 0.32421875 C75.52435547 0.32615234 75.52435547 0.32615234 76.8125 0.328125 C77.58529297 0.32925293 78.35808594 0.33038086 79.15429688 0.33154297 C81.09375 0.4609375 81.09375 0.4609375 83.09375 1.4609375 C82.82691186 8.09746036 80.31562575 11.36163027 76.03125 16.2734375 C74.83698029 17.68988559 73.6429691 19.10655168 72.44921875 20.5234375 C71.86962402 21.20148438 71.2900293 21.87953125 70.69287109 22.578125 C68.69045871 24.93577451 66.76124815 27.34642159 64.84375 29.7734375 C62.10151602 33.2142195 59.32482266 36.62419951 56.53125 40.0234375 C55.79132812 40.93480469 55.05140625 41.84617187 54.2890625 42.78515625 C52.850908 44.53806699 51.38794531 46.27098025 49.8984375 47.98046875 C49.24101563 48.75777344 48.58359375 49.53507812 47.90625 50.3359375 C47.31457031 51.01398438 46.72289062 51.69203125 46.11328125 52.390625 C44.79472553 54.46581996 44.79472553 54.46581996 45.84350586 56.83032227 C47.05420623 59.37773419 48.3573967 61.39416095 50.078125 63.62109375 C50.9760376 64.79623535 50.9760376 64.79623535 51.89208984 65.99511719 C52.5361377 66.82946289 53.18018555 67.66380859 53.84375 68.5234375 C63.64471508 81.42855532 73.41790695 94.40648113 81.53125 108.4609375 C81.91522949 109.11352539 82.29920898 109.76611328 82.69482422 110.43847656 C84.12471828 113.01078001 85.13280434 114.85209034 84.94140625 117.8359375 C84.09375 119.4609375 84.09375 119.4609375 82.09375 120.4609375 C79.13997888 120.66504804 76.23774311 120.78476295 73.28125 120.8359375 C72.47365234 120.87332031 71.66605469 120.91070313 70.83398438 120.94921875 C66.80856581 121.00856153 64.74491363 120.94164947 61.4375 118.5 C58.37090821 114.52365264 55.34409097 110.53365167 52.40625 106.4609375 C51.16117688 104.75316168 49.9150785 103.04613288 48.66796875 101.33984375 C48.06001465 100.50727051 47.45206055 99.67469727 46.82568359 98.81689453 C36.58907005 82.10950888 36.58907005 82.10950888 22.9296875 71.046875 C22.11757813 70.97726562 21.30546875 70.90765625 20.46875 70.8359375 C19.65148437 70.76117187 18.83421875 70.68640625 17.9921875 70.609375 C17.05246094 70.53589844 17.05246094 70.53589844 16.09375 70.4609375 C16.09819122 71.05784393 16.10263245 71.65475037 16.10720825 72.26974487 C16.15135581 78.46610121 16.18158059 84.66241308 16.20361328 90.85888672 C16.21368892 93.17335829 16.22734975 95.48781709 16.24462891 97.80224609 C16.26880865 101.12340443 16.2802173 104.4443949 16.2890625 107.765625 C16.29938507 108.80524384 16.30970764 109.84486267 16.32034302 110.91598511 C16.32049408 111.87683014 16.32064514 112.83767517 16.32080078 113.82763672 C16.325242 114.67591034 16.32968323 115.52418396 16.33425903 116.39816284 C16.09375 118.4609375 16.09375 118.4609375 14.09375 120.4609375 C12.26196289 120.71972656 12.26196289 120.71972656 10.06640625 120.7265625 C9.27427734 120.72914063 8.48214844 120.73171875 7.66601562 120.734375 C6.83779297 120.72664062 6.00957031 120.71890625 5.15625 120.7109375 C3.9197168 120.72253906 3.9197168 120.72253906 2.65820312 120.734375 C1.86478516 120.73179687 1.07136719 120.72921875 0.25390625 120.7265625 C-0.47175537 120.72430664 -1.19741699 120.72205078 -1.94506836 120.71972656 C-3.90625 120.4609375 -3.90625 120.4609375 -6.90625 118.4609375 C-7.28377342 116.44563484 -7.28377342 116.44563484 -7.28720093 113.91946411 C-7.2956604 112.96328186 -7.30411987 112.00709961 -7.31283569 111.02194214 C-7.306763 109.96943268 -7.30069031 108.91692322 -7.29443359 107.83251953 C-7.29969055 106.72674561 -7.30494751 105.62097168 -7.31036377 104.48168945 C-7.32361393 100.81056774 -7.3148065 97.13987646 -7.3046875 93.46875 C-7.30670707 90.92528195 -7.30961753 88.38181445 -7.31338501 85.83834839 C-7.31781542 80.50008107 -7.31163992 75.16196912 -7.29736328 69.82373047 C-7.28105239 63.65364628 -7.28631171 57.48385972 -7.3028425 51.31378281 C-7.31810472 45.37960276 -7.31647858 39.44551509 -7.3076973 33.51131821 C-7.30569311 30.98589919 -7.30816217 28.4604726 -7.31513596 25.93506241 C-7.32274061 22.40588426 -7.31115844 18.87727987 -7.29443359 15.34814453 C-7.30050629 14.29968353 -7.30657898 13.25122253 -7.31283569 12.17098999 C-7.30437622 11.20916809 -7.29591675 10.24734619 -7.28720093 9.25637817 C-7.28606985 8.42198778 -7.28493877 7.58759739 -7.28377342 6.72792244 C-6.48046808 1.90416582 -4.77026204 0.56289092 0 0 Z " fill="#FCFBFC" transform="translate(844.90625,457.5390625)"/>
<path d="M0 0 C0.90603973 0.00404846 1.81207947 0.00809692 2.74557495 0.01226807 C3.69850433 0.00876343 4.65143372 0.00525879 5.63323975 0.00164795 C8.79445605 -0.0071804 11.95544997 -0.00131629 15.1166687 0.00543213 C17.30620365 0.0040858 19.4957383 0.00214553 21.68527222 -0.00036621 C26.27864421 -0.00331897 30.87193853 0.00098507 35.46530151 0.01031494 C41.36382733 0.02170952 47.26217117 0.01515086 53.16069031 0.00317001 C57.68329244 -0.00404447 62.20585117 -0.00176255 66.72845459 0.0034256 C68.9038495 0.00476324 71.07924831 0.00311041 73.25463867 -0.00153351 C76.29078668 -0.00659196 79.32663673 0.00110195 82.36276245 0.01226807 C83.26880219 0.0082196 84.17484192 0.00417114 85.1083374 0 C91.32564123 0.04252965 91.32564123 0.04252965 93.5541687 2.27105713 C93.75273842 5.14447774 93.83245816 7.89967701 93.8041687 10.77105713 C93.81577026 11.94861572 93.81577026 11.94861572 93.8276062 13.14996338 C93.80747658 19.01774925 93.80747658 19.01774925 91.5541687 21.27105713 C88.68528289 21.44638002 85.91424225 21.50243327 83.0463562 21.46636963 C82.20573639 21.46353973 81.36511658 21.46070984 80.49902344 21.45779419 C77.80892824 21.44658143 75.1191636 21.42147516 72.4291687 21.39605713 C70.60755892 21.38602873 68.78594393 21.37690264 66.96432495 21.36871338 C62.49414512 21.34663855 58.02421299 21.31210147 53.5541687 21.27105713 C53.55860992 22.48183929 53.56305115 23.69262146 53.56762695 24.94009399 C53.6081046 36.32975611 53.63812012 47.7194037 53.65779305 59.10912132 C53.66824695 64.96521366 53.68243537 70.82124811 53.70504761 76.67730713 C53.7267188 82.3247599 53.73872521 87.97215685 53.74392319 93.61964798 C53.74762926 95.7783051 53.75486589 97.93695903 53.76562881 100.0955925 C53.78006768 103.11036623 53.78214984 106.12490694 53.78121948 109.13970947 C53.78841003 110.03954056 53.79560059 110.93937164 53.80300903 111.86647034 C53.78227302 118.04295281 53.78227302 118.04295281 51.5541687 120.27105713 C49.70651245 120.52984619 49.70651245 120.52984619 47.4916687 120.53668213 C46.29670776 120.54054932 46.29670776 120.54054932 45.0776062 120.54449463 C44.24487183 120.53676025 43.41213745 120.52902588 42.5541687 120.52105713 C41.30506714 120.53265869 41.30506714 120.53265869 40.0307312 120.54449463 C39.23409058 120.5419165 38.43744995 120.53933838 37.6166687 120.53668213 C36.88577026 120.53442627 36.15487183 120.53217041 35.40182495 120.52984619 C33.5541687 120.27105713 33.5541687 120.27105713 31.5541687 118.27105713 C31.36571743 115.19718044 31.30255119 112.21400863 31.32711792 109.13970947 C31.32682587 108.19332108 31.32653381 107.24693268 31.32623291 106.27186584 C31.3276299 103.13348322 31.34320847 99.99533594 31.3588562 96.85699463 C31.36258502 94.68509043 31.36543261 92.51318455 31.36743164 90.34127808 C31.37507843 84.61687601 31.39473589 78.89257496 31.4168396 73.16821289 C31.43727553 67.33011237 31.44642853 61.49199558 31.45651245 55.65386963 C31.4779808 44.19288767 31.51212933 32.73198079 31.5541687 21.27105713 C30.44903931 21.28676758 29.34390991 21.30247803 28.20529175 21.31866455 C24.10722129 21.3729427 20.00918263 21.40739937 15.91085815 21.43585205 C14.13671527 21.45094354 12.36260972 21.47141904 10.58859253 21.49737549 C8.03926383 21.53374353 5.49042811 21.55077951 2.94088745 21.56402588 C2.14704147 21.57950974 1.3531955 21.59499359 0.53529358 21.61094666 C-4.9141025 21.61261408 -4.9141025 21.61261408 -7.44729614 19.9854126 C-9.20665551 16.96482055 -8.83330998 13.60059252 -8.7583313 10.20855713 C-8.76155396 9.4757251 -8.76477661 8.74289307 -8.76809692 7.987854 C-8.69493671 0.74499287 -7.04273853 0.04817607 0 0 Z " fill="#FEFEFE" transform="translate(512.4458312988281,457.72894287109375)"/>
<path d="M0 0 C1.84765625 -0.35644531 1.84765625 -0.35644531 4.0625 -0.328125 C4.85914063 -0.32296875 5.65578125 -0.3178125 6.4765625 -0.3125 C7.72566406 -0.2815625 7.72566406 -0.2815625 9 -0.25 C10.24910156 -0.24226563 10.24910156 -0.24226563 11.5234375 -0.234375 C17.69092608 -0.15453696 17.69092608 -0.15453696 20 1 C20.91826858 3.69430866 21.12407995 6.18083632 21.12025452 9.01165771 C21.12162918 9.7996727 21.12300385 10.58768768 21.12442017 11.39958191 C21.12082489 12.25481949 21.11722961 13.11005707 21.11352539 13.99121094 C21.11367142 14.89887711 21.11381744 15.80654327 21.1139679 16.74171448 C21.11327171 19.73929237 21.10549302 22.73680798 21.09765625 25.734375 C21.09579103 27.8137407 21.09436762 29.89310685 21.09336853 31.97247314 C21.08955157 37.44363622 21.07972826 42.91477272 21.06866455 48.38592529 C21.05843281 53.96951946 21.05386713 59.55311791 21.04882812 65.13671875 C21.03810528 76.0911575 21.02103868 87.04557654 21 98 C21.65954681 97.99555878 22.31909363 97.99111755 22.99862671 97.98654175 C29.84378906 97.94240223 36.68891121 97.91217274 43.53417969 97.89013672 C46.09116253 97.88005962 48.64813379 97.86639774 51.20507812 97.84912109 C54.87372692 97.82494783 58.54222379 97.81353415 62.2109375 97.8046875 C63.9344191 97.78920364 63.9344191 97.78920364 65.69271851 97.77340698 C67.28414169 97.77318039 67.28414169 97.77318039 68.90771484 97.77294922 C70.31336197 97.76628738 70.31336197 97.76628738 71.74740601 97.75949097 C74 98 74 98 76 100 C76.19856972 102.87342061 76.27828946 105.62861988 76.25 108.5 C76.26160156 109.67755859 76.26160156 109.67755859 76.2734375 110.87890625 C76.25330787 116.74669213 76.25330787 116.74669213 74 119 C70.96362305 119.25396729 70.96362305 119.25396729 67.01171875 119.25878906 C65.93345322 119.26404602 65.93345322 119.26404602 64.83340454 119.26940918 C62.45133884 119.27822965 60.06956885 119.27237636 57.6875 119.265625 C56.03605085 119.26697156 54.38460209 119.26891202 52.7331543 119.27142334 C49.26965567 119.27437503 45.8062601 119.27007557 42.34277344 119.26074219 C37.89704689 119.24934758 33.4515618 119.25590682 29.00584412 119.26788712 C25.59499279 119.27510454 22.18419898 119.27281834 18.77334595 119.26763153 C17.13383964 119.26629471 15.49432815 119.2679439 13.85482788 119.27259064 C11.56583774 119.277654 9.27724192 119.26994862 6.98828125 119.25878906 C5.68415283 119.25719788 4.38002441 119.25560669 3.03637695 119.25396729 C0 119 0 119 -2 117 C-2.25168228 114.98190403 -2.25168228 114.98190403 -2.25396729 112.45179749 C-2.26242676 111.01535637 -2.26242676 111.01535637 -2.27105713 109.54989624 C-2.26700867 108.49581573 -2.26296021 107.44173523 -2.25878906 106.35571289 C-2.2622937 105.24833267 -2.26579834 104.14095245 -2.26940918 103.00001526 C-2.27824169 99.32416593 -2.27237151 95.64850768 -2.265625 91.97265625 C-2.26697131 89.42679304 -2.26891155 86.88093008 -2.27142334 84.33506775 C-2.27437675 78.99263836 -2.27026004 73.65027798 -2.26074219 68.30786133 C-2.24986284 62.12986127 -2.25337869 55.95199326 -2.264395 49.77399641 C-2.27456256 43.83448757 -2.27348867 37.89501978 -2.26763153 31.95550346 C-2.26629448 29.42646707 -2.26794469 26.89742733 -2.27259064 24.36839485 C-2.2776536 20.83673221 -2.26994836 17.30532518 -2.25878906 13.77368164 C-2.26283752 12.72162537 -2.26688599 11.66956909 -2.27105713 10.58563232 C-2.26541748 9.62518509 -2.25977783 8.66473785 -2.25396729 7.67518616 C-2.25321323 6.83987397 -2.25245918 6.00456179 -2.25168228 5.14393711 C-2 3 -2 3 0 0 Z " fill="#FDFDFD" transform="translate(740,458)"/>
<path d="M0 0 C1.08667969 -0.01160156 1.08667969 -0.01160156 2.1953125 -0.0234375 C5.99388493 -0.00942063 7.76837084 0.09558056 11 2.25 C11.3719368 4.30491734 11.3719368 4.30491734 11.36749268 6.8875885 C11.37584641 8.35360756 11.37584641 8.35360756 11.3843689 9.84924316 C11.37515411 10.92516724 11.36593933 12.00109131 11.35644531 13.10961914 C11.35951187 14.80476906 11.35951187 14.80476906 11.36264038 16.53416443 C11.36565839 20.28465746 11.34714143 24.03471519 11.328125 27.78515625 C11.3250693 30.38064973 11.32319174 32.97614484 11.32244873 35.57164001 C11.31783936 41.01665922 11.30377661 46.46152228 11.28125 51.90649414 C11.25236146 58.9036546 11.24202586 65.90071367 11.2375679 72.89792728 C11.23402004 78.25859207 11.22360993 83.61923405 11.21169281 88.97988701 C11.20597559 91.56081386 11.20122173 94.14174302 11.19742584 96.72267342 C11.19058893 100.32174874 11.17696917 103.92072986 11.16113281 107.51977539 C11.16001495 108.59772369 11.15889709 109.675672 11.15774536 110.7862854 C11.15203522 111.76081161 11.14632507 112.73533783 11.14044189 113.73939514 C11.1359799 115.01725183 11.1359799 115.01725183 11.13142776 116.32092381 C11 118.25 11 118.25 10 119.25 C8.52347336 119.34880797 7.04232764 119.38079245 5.5625 119.3828125 C4.22058594 119.38474609 4.22058594 119.38474609 2.8515625 119.38671875 C1.44003906 119.38091797 1.44003906 119.38091797 0 119.375 C-1.41152344 119.38080078 -1.41152344 119.38080078 -2.8515625 119.38671875 C-3.74617188 119.38542969 -4.64078125 119.38414062 -5.5625 119.3828125 C-6.38878906 119.38168457 -7.21507813 119.38055664 -8.06640625 119.37939453 C-10 119.25 -10 119.25 -11 118.25 C-11.1022483 116.74921548 -11.13518937 115.24364955 -11.14044189 113.73939514 C-11.14615204 112.76486893 -11.15186218 111.79034271 -11.15774536 110.7862854 C-11.15886322 109.7083371 -11.15998108 108.63038879 -11.16113281 107.51977539 C-11.16609772 106.39142776 -11.17106262 105.26308014 -11.17617798 104.10054016 C-11.19084237 100.34957277 -11.19760825 96.59864765 -11.203125 92.84765625 C-11.20887235 90.25312803 -11.21463013 87.65859983 -11.22039795 85.06407166 C-11.22957298 80.31450554 -11.23586872 75.56495647 -11.2388947 70.81538302 C-11.24337817 63.81577539 -11.26093719 56.81636279 -11.2898953 49.81681448 C-11.31407715 43.76250605 -11.32183707 37.70829022 -11.32357025 31.65392876 C-11.32660785 29.07381567 -11.33467325 26.49370362 -11.34775543 23.9136219 C-11.36471474 20.31213522 -11.36296051 16.71112898 -11.35644531 13.10961914 C-11.3656601 12.03369507 -11.37487488 10.957771 -11.3843689 9.84924316 C-11.37879974 8.87189713 -11.37323059 7.89455109 -11.36749268 6.8875885 C-11.36969252 5.60916627 -11.36969252 5.60916627 -11.3719368 4.30491734 C-11.24919765 3.62679461 -11.12645851 2.94867189 -11 2.25 C-7.26332113 -0.24111925 -4.32129024 -0.04613477 0 0 Z " fill="#FEFEFE" transform="translate(107,457.75)"/>
<path d="M0 0 C5.61 -0.061875 11.22 -0.12375 17 -0.1875 C18.75441406 -0.21481201 20.50882812 -0.24212402 22.31640625 -0.27026367 C23.73176387 -0.27903851 25.14712915 -0.28668008 26.5625 -0.29296875 C27.27728516 -0.30831665 27.99207031 -0.32366455 28.72851562 -0.33947754 C34.71970886 -0.34253843 40.32834646 0.76939743 45.05859375 4.71875 C45.74115234 5.60046875 45.74115234 5.60046875 46.4375 6.5 C46.91058594 7.0878125 47.38367188 7.675625 47.87109375 8.28125 C50.80149319 12.7427578 50.54536557 17.87356368 50 23 C48.66484714 27.26283743 46.30963353 30.08102712 42.5 32.375 C37.15527881 34.85647769 32.81267814 35.13842785 26.953125 35.09765625 C26.26911621 35.09664917 25.58510742 35.09564209 24.88037109 35.09460449 C22.33689689 35.0893913 19.79344668 35.07543006 17.25 35.0625 C8.71125 35.0315625 8.71125 35.0315625 0 35 C0 23.45 0 11.9 0 0 Z " fill="#010001" transform="translate(411,477)"/>
<path d="M0 0 C2.03669406 2.03669406 2.57836198 3.13526436 3.55639648 5.77197266 C3.9921122 6.93425888 3.9921122 6.93425888 4.43663025 8.12002563 C4.7450032 8.9595578 5.05337616 9.79908997 5.37109375 10.6640625 C5.69408951 11.53010101 6.01708527 12.39613953 6.34986877 13.28842163 C7.38423196 16.06539663 8.41096871 18.84512155 9.4375 21.625 C10.12514676 23.47544789 10.81329207 25.3257106 11.50195312 27.17578125 C13.03368502 31.2931028 14.56059794 35.41217476 16.08323669 39.53286743 C17.38083923 43.02488926 18.69195378 46.51187674 20 50 C7.46 50 -5.08 50 -18 50 C-17.30631884 46.53159418 -16.64376681 43.75590639 -15.43359375 40.5168457 C-14.95805054 39.23575676 -14.95805054 39.23575676 -14.47290039 37.92878723 C-14.13121826 37.02029526 -13.78953613 36.11180328 -13.4375 35.17578125 C-13.0861499 34.2331694 -12.7347998 33.29055756 -12.37280273 32.31938171 C-11.63148406 30.33262338 -10.88836124 28.3465374 -10.14355469 26.36108398 C-9.00071626 23.31440946 -7.86315641 20.26580581 -6.7265625 17.21679688 C-6.00551377 15.28634422 -5.2841698 13.35600181 -4.5625 11.42578125 C-4.22081787 10.51121658 -3.87913574 9.59665192 -3.52709961 8.65437317 C-3.2100708 7.80977036 -2.89304199 6.96516754 -2.56640625 6.0949707 C-2.28740479 5.35060257 -2.00840332 4.60623444 -1.72094727 3.83930969 C-1 2 -1 2 0 0 Z " fill="#020202" transform="translate(660,484)"/>
</svg>
